<?xml version="1.0" encoding="UTF-8"?> <svg xmlns="http://www.w3.org/2000/svg" xmlns:xlink="http://www.w3.org/1999/xlink" version="1.1" id="Layer_1" x="0px" y="0px" width="128px" height="128px" viewBox="0 0 128 128" xml:space="preserve"> <g> <g> <g> <path fill="#00A0E9" d="M64,44.826c-10.573,0-19.174,8.601-19.174,19.173c0,10.573,8.601,19.174,19.174,19.174 c10.572,0,19.174-8.601,19.174-19.173C83.174,53.427,74.572,44.826,64,44.826z M64,76.072c-6.657,0-12.072-5.416-12.072-12.073 S57.343,51.927,64,51.927s12.072,5.416,12.072,12.072C76.072,70.654,70.656,76.072,64,76.072z"></path> <path fill="#00A0E9" d="M126.828,78.197l-10.857-9.803v-8.791l10.857-9.802c1.115-1.007,1.477-2.607,0.9-3.995l-5.804-14.009 c-0.573-1.387-1.957-2.262-3.461-2.187l-14.608,0.746l-6.215-6.215l0.746-14.608c0.077-1.5-0.8-2.887-2.187-3.462L82.189,0.269 c-1.387-0.576-2.987-0.214-3.994,0.9l-9.803,10.858h-8.789L49.803,1.171c-1.007-1.115-2.607-1.475-3.994-0.9L31.8,6.073 c-1.388,0.575-2.264,1.962-2.187,3.462l0.747,14.608l-6.215,6.214L9.536,29.612c-1.496-0.08-2.887,0.799-3.461,2.188 L0.271,45.808c-0.575,1.388-0.214,2.988,0.9,3.995l10.858,9.802v8.79L1.172,78.195c-1.115,1.008-1.476,2.606-0.901,3.996 L6.074,96.2c0.575,1.388,1.963,2.271,3.461,2.187l14.608-0.746l6.215,6.215l-0.747,14.609c-0.077,1.5,0.799,2.887,2.187,3.461 l14.009,5.803c1.388,0.576,2.988,0.215,3.994-0.899l9.803-10.856h8.789l9.803,10.856C78.887,127.59,79.85,128,80.834,128 c0.457,0,0.918-0.09,1.357-0.271l14.01-5.803c1.389-0.574,2.264-1.961,2.188-3.461l-0.746-14.607l6.215-6.215l14.607,0.746 c1.496,0.074,2.887-0.801,3.463-2.188l5.801-14.01C128.305,80.803,127.943,79.203,126.828,78.197z M116.324,91.168l-13.682-0.699 c-1.004-0.055-1.982,0.326-2.691,1.035l-8.447,8.447c-0.711,0.71-1.086,1.688-1.035,2.691l0.699,13.682l-9.379,3.885 l-9.182-10.169c-0.674-0.745-1.631-1.171-2.635-1.171H58.028c-1.005,0-1.962,0.426-2.636,1.171l-9.181,10.169l-9.379-3.885 l0.699-13.682c0.051-1.004-0.325-1.981-1.036-2.691l-8.446-8.447c-0.71-0.71-1.687-1.088-2.692-1.035l-13.682,0.699L7.79,81.789 l10.169-9.182c0.746-0.674,1.171-1.631,1.171-2.635V58.027c0-1.004-0.425-1.962-1.171-2.636L7.79,46.211l3.885-9.379 l13.682,0.699c1.004,0.053,1.981-0.325,2.692-1.036l8.446-8.446c0.711-0.71,1.087-1.688,1.036-2.693l-0.699-13.682l9.379-3.885 l9.181,10.169c0.673,0.745,1.631,1.171,2.636,1.171h11.945c1.004,0,1.963-0.426,2.635-1.171L81.789,7.79l9.379,3.885 l-0.699,13.682c-0.051,1.004,0.324,1.981,1.035,2.693l8.447,8.446c0.71,0.71,1.688,1.094,2.691,1.036l13.682-0.699l3.885,9.379 l-10.169,9.18c-0.745,0.674-1.171,1.631-1.171,2.636v11.945c0,1.004,0.426,1.963,1.171,2.637l10.169,9.181L116.324,91.168z"></path> <path fill="#00A0E9" d="M64,30.434c-18.508,0-33.565,15.058-33.565,33.565c0,18.508,15.058,33.565,33.565,33.565 s33.566-15.059,33.566-33.565C97.564,45.492,82.508,30.434,64,30.434z M64,90.463c-14.593,0-26.464-11.871-26.464-26.463 S49.408,37.536,64,37.536S90.464,49.408,90.464,64S78.592,90.463,64,90.463z"></path> </g> </g> </g> </svg> 